<?xml version="1.0" standalone="no"?>
<!DOCTYPE svg PUBLIC "-//W3C//DTD SVG 20010904//EN"
 "http://www.w3.org/TR/2001/REC-SVG-20010904/DTD/svg10.dtd">
<svg version="1.0" xmlns="http://www.w3.org/2000/svg"
 width="1280.000000pt" height="1278.000000pt" viewBox="0 0 1280.000000 1278.000000"
 preserveAspectRatio="xMidYMid meet">
<g transform="translate(0.000000,1278.000000) scale(0.100000,-0.100000)"
fill="#000000" stroke="none">
<path d="M6415 12624 c-88 -133 -137 -277 -140 -419 -2 -103 4 -100 -100 -53
-97 44 -209 50 -275 16 -112 -57 -121 -216 -19 -332 49 -56 94 -73 141 -53 49
21 61 40 53 86 -6 35 -4 41 19 57 52 34 176 -3 176 -52 0 -7 -31 -59 -70 -115
-38 -57 -70 -114 -70 -126 0 -13 11 -29 25 -39 21 -13 32 -14 77 -5 29 7 68
21 87 32 52 31 65 20 58 -50 -10 -95 -82 -360 -131 -481 -146 -364 -354 -528
-568 -450 -83 30 -149 73 -233 151 -93 87 -187 206 -183 232 3 19 10 21 94 21
76 1 96 4 113 20 45 41 26 70 -105 165 -40 28 -75 58 -78 67 -17 44 60 114
123 114 45 0 61 -14 61 -56 0 -28 5 -34 39 -47 66 -27 117 1 154 82 23 52 27
147 8 203 -14 41 -68 94 -107 104 -42 11 -128 -1 -177 -25 -25 -12 -77 -51
-116 -87 -38 -35 -72 -60 -75 -55 -4 5 -15 38 -26 73 -32 102 -86 184 -196
294 -92 92 -136 125 -151 111 -19 -19 -46 -167 -50 -273 -6 -129 3 -194 38
-282 12 -29 19 -55 17 -58 -3 -2 -41 0 -85 5 -191 21 -320 -47 -331 -174 -6
-70 22 -129 90 -190 81 -73 154 -81 203 -23 28 33 32 69 10 88 -64 53 87 134
160 86 30 -20 30 -26 -11 -162 -13 -44 -24 -91 -24 -105 0 -28 27 -59 51 -59
26 0 116 59 143 92 26 32 27 33 42 13 11 -16 13 -38 9 -105 -16 -232 -45 -375
-100 -487 -44 -88 -95 -135 -173 -157 -137 -38 -237 -29 -359 33 -78 39 -203
128 -203 144 0 8 25 24 55 36 57 24 118 82 113 108 -6 31 -52 52 -138 63 -47
6 -100 16 -117 21 -29 9 -33 15 -33 45 0 99 108 176 145 104 13 -25 22 -30 51
-30 46 0 70 14 90 51 52 102 -29 286 -141 319 -114 34 -236 -77 -289 -262 -9
-32 -19 -58 -22 -58 -3 0 -34 25 -67 56 -106 96 -310 178 -462 186 -41 3 -50
0 -53 -16 -5 -25 45 -75 283 -281 293 -253 424 -392 558 -595 161 -244 203
-343 226 -524 5 -45 15 -82 23 -87 7 -5 913 -9 2013 -9 l2000 0 13 76 c24 153
144 399 321 656 98 143 238 287 466 482 208 178 297 264 293 284 -3 14 -15 17
-68 15 -144 -5 -353 -91 -457 -189 -32 -29 -60 -50 -64 -46 -4 4 -18 43 -33
87 -31 94 -66 147 -124 192 -73 56 -149 56 -215 2 -75 -62 -116 -194 -84 -271
27 -65 118 -90 143 -39 17 34 33 40 66 29 51 -18 98 -100 84 -146 -9 -26 -22
-30 -139 -47 -108 -15 -147 -33 -147 -68 0 -39 98 -117 147 -117 30 0 46 -16
37 -33 -14 -24 -141 -124 -214 -167 -168 -100 -351 -91 -477 24 -101 90 -159
285 -178 599 -9 145 -2 154 72 87 30 -28 72 -55 95 -62 38 -11 42 -10 59 11
25 31 24 42 -11 156 -16 54 -30 105 -30 115 0 67 155 66 191 -1 9 -18 7 -27
-10 -50 -16 -21 -19 -34 -12 -51 11 -29 49 -64 78 -72 62 -19 178 60 219 149
37 79 29 142 -24 198 -61 65 -158 91 -287 76 -43 -4 -80 -7 -82 -5 -2 2 8 39
23 82 45 132 44 307 -3 475 -9 32 -21 59 -28 59 -36 0 -198 -157 -263 -254
-25 -38 -58 -106 -73 -150 -15 -45 -33 -80 -39 -78 -6 1 -37 27 -68 58 -31 30
-85 69 -119 86 -54 26 -70 30 -125 26 -73 -4 -106 -23 -138 -81 -68 -119 -3
-319 104 -319 54 0 86 25 86 67 0 29 4 36 25 41 40 10 91 -4 124 -35 54 -51
41 -86 -59 -153 -76 -52 -110 -89 -110 -120 0 -42 51 -61 149 -56 49 2 75 -1
78 -8 11 -34 -219 -290 -321 -358 -113 -75 -187 -84 -285 -35 -169 84 -307
285 -411 597 -43 128 -90 318 -90 364 0 39 12 41 62 13 54 -30 126 -42 157
-26 39 21 28 68 -39 161 -74 102 -80 123 -50 155 27 28 75 40 125 31 42 -8 59
-34 45 -71 -12 -31 1 -55 42 -80 105 -61 257 130 218 274 -35 131 -182 167
-365 90 -44 -19 -84 -34 -89 -34 -6 0 -11 41 -12 90 -2 110 -29 216 -85 328
-51 101 -84 147 -109 147 -11 0 -32 -21 -55 -56z"/>
<path d="M9470 9662 c0 -23 52 -273 78 -377 140 -550 385 -857 776 -970 108
-31 272 -53 287 -38 17 17 23 210 10 308 -58 431 -388 766 -1030 1044 -94 41
-121 48 -121 33z"/>
<path d="M3020 9597 c-442 -204 -705 -407 -859 -662 -49 -81 -98 -218 -117
-327 -19 -107 -16 -320 4 -340 9 -9 34 -9 111 0 537 67 834 419 990 1176 23
108 41 201 41 206 0 20 -38 8 -170 -53z"/>
<path d="M4467 9423 c-4 -3 -7 -68 -7 -143 0 -104 3 -140 14 -149 10 -8 539
-10 1997 -9 l1984 3 3 153 3 152 -1994 0 c-1097 0 -1997 -3 -2000 -7z"/>
<path d="M10993 9208 c-185 -368 -256 -606 -256 -858 0 -258 73 -450 251 -656
34 -39 78 -83 97 -99 l37 -27 54 58 c77 82 164 216 204 309 55 133 73 245 67
420 -6 170 -20 246 -82 430 -64 192 -251 585 -279 585 -7 0 -48 -73 -93 -162z"/>
<path d="M1498 9238 c-127 -237 -223 -482 -265 -678 -14 -64 -18 -128 -18
-260 0 -153 3 -185 23 -254 43 -150 116 -283 225 -409 78 -90 75 -90 165 0
141 142 239 315 278 496 37 168 15 408 -58 635 -56 176 -244 581 -274 589 -6
2 -40 -52 -76 -119z"/>
<path d="M9685 8391 c-8 -13 80 -287 140 -436 102 -255 197 -408 339 -551 102
-101 176 -153 287 -201 133 -58 217 -75 374 -77 l140 -1 -1 105 c-1 264 -103
492 -306 686 -211 201 -460 326 -955 479 -7 2 -15 0 -18 -4z"/>
<path d="M2770 8325 c-564 -189 -894 -445 -1019 -790 -36 -101 -63 -259 -59
-350 l3 -70 140 1 c118 0 155 5 237 27 342 93 580 341 763 798 35 87 71 194
141 422 9 28 -27 21 -206 -38z"/>
<path d="M6125 8343 c-350 -30 -684 -138 -975 -313 -588 -354 -940 -890 -1011
-1541 -15 -133 -6 -435 15 -554 59 -323 181 -613 371 -877 81 -112 289 -318
405 -400 125 -89 338 -197 479 -242 176 -57 315 -78 531 -80 179 -1 185 -2
182 -21 -9 -53 -115 -261 -152 -299 -18 -18 -21 -17 -132 51 -377 232 -657
349 -915 384 -124 16 -346 6 -447 -20 -160 -42 -334 -148 -417 -253 -168 -212
-170 -494 -7 -706 97 -125 281 -238 473 -289 93 -25 115 -27 305 -27 219 0
310 11 505 60 268 68 555 214 782 397 39 32 73 57 78 57 4 0 80 -51 168 -114
319 -224 518 -337 711 -401 161 -54 259 -68 416 -62 148 6 239 25 363 77 323
134 633 517 745 919 24 85 27 114 27 251 0 175 -11 223 -69 305 -48 67 -99 98
-169 103 -81 6 -135 -17 -196 -84 -61 -67 -85 -132 -84 -229 2 -143 65 -236
210 -309 86 -43 98 -65 91 -167 -15 -198 -219 -400 -496 -489 -149 -48 -256
-63 -447 -63 -259 0 -471 40 -741 139 -137 51 -425 191 -431 211 -2 6 17 35
43 64 129 146 254 339 349 542 33 70 64 127 70 127 27 0 364 177 470 247 364
240 708 592 990 1013 272 407 426 800 491 1255 25 170 25 498 0 620 -72 365
-272 563 -547 542 -146 -12 -307 -82 -439 -192 -36 -30 -81 -68 -101 -84 l-36
-30 -79 61 c-380 293 -776 432 -1216 426 -68 -1 -141 -3 -163 -5z m400 -113
c327 -38 627 -167 892 -384 35 -28 63 -56 63 -63 0 -7 -35 -56 -77 -110 -150
-193 -299 -434 -389 -636 -96 -212 -161 -407 -388 -1168 -229 -769 -425 -1372
-455 -1402 -5 -5 -64 -13 -132 -18 -281 -21 -555 33 -810 161 -399 201 -708
540 -842 927 -238 682 -21 1539 528 2088 176 176 331 289 545 395 238 119 445
179 735 213 66 8 245 6 330 -3z m1785 -206 c122 -51 197 -219 215 -484 13
-189 -26 -560 -84 -804 -97 -403 -291 -837 -515 -1151 -201 -281 -509 -588
-751 -748 -78 -52 -337 -187 -357 -187 -15 0 -7 42 37 197 60 213 161 614 230
913 124 539 221 898 330 1226 97 291 218 571 252 581 21 7 164 -210 277 -419
26 -48 51 -90 56 -93 5 -3 27 3 49 15 36 18 40 23 31 44 -43 115 -224 418
-317 532 -18 23 -33 48 -33 56 0 25 147 194 212 243 76 57 103 71 170 90 60
16 142 12 198 -11z m-3270 -3709 c140 -36 239 -75 395 -155 142 -72 400 -220
437 -249 l23 -19 -49 -72 c-68 -99 -228 -264 -322 -332 -231 -166 -467 -236
-749 -225 -162 7 -257 31 -391 97 -137 67 -238 160 -291 268 -37 75 -38 78
-38 192 0 114 1 117 37 192 80 160 270 290 480 328 29 5 123 7 208 6 129 -3
173 -9 260 -31z"/>
<path d="M11694 7895 c-245 -311 -366 -529 -431 -773 -35 -130 -37 -336 -5
-454 39 -143 141 -348 200 -401 18 -17 21 -16 83 25 83 55 204 176 259 257
199 296 229 664 95 1186 -52 202 -76 277 -91 282 -6 2 -55 -53 -110 -122z"/>
<path d="M842 7993 c-14 -26 -57 -179 -92 -323 -78 -327 -87 -591 -29 -825 27
-108 106 -267 177 -356 61 -77 153 -163 235 -218 56 -38 59 -37 117 49 134
197 198 441 171 653 -35 282 -166 543 -452 903 -108 135 -114 141 -127 117z"/>
<path d="M10370 7043 c0 -126 13 -304 30 -418 84 -549 315 -858 743 -994 132
-42 131 -42 150 27 45 162 48 375 8 526 -81 304 -332 593 -771 886 -74 50
-140 90 -147 90 -10 0 -13 -28 -13 -117z"/>
<path d="M2149 7074 c-451 -302 -690 -569 -786 -881 -25 -81 -27 -101 -27
-263 0 -148 3 -187 21 -253 12 -43 24 -82 28 -85 9 -9 137 25 224 60 443 175
654 583 678 1311 5 161 4 187 -9 187 -8 0 -66 -34 -129 -76z"/>
<path d="M12186 6465 c-391 -239 -622 -457 -742 -700 -69 -140 -87 -222 -87
-400 -1 -120 4 -169 21 -244 12 -52 27 -100 32 -105 16 -16 163 25 264 72 418
196 625 613 672 1355 6 88 4 107 -7 107 -8 0 -77 -39 -153 -85z"/>
<path d="M314 6423 c41 -699 249 -1134 635 -1328 98 -49 247 -98 282 -93 21 3
27 13 42 73 32 126 42 261 29 375 -40 340 -246 618 -665 898 -109 73 -308 192
-322 192 -4 0 -5 -53 -1 -117z"/>
<path d="M10427 5993 c-3 -5 -15 -60 -27 -123 -92 -481 -89 -764 10 -1033 80
-219 256 -409 486 -525 71 -36 73 -35 117 53 126 254 140 537 38 809 -85 229
-235 445 -502 724 -93 97 -112 112 -122 95z"/>
<path d="M2086 5866 c-304 -331 -452 -570 -522 -846 -15 -59 -19 -108 -18
-230 1 -138 4 -165 28 -245 14 -49 47 -132 71 -183 52 -108 43 -106 163 -38
441 248 595 686 481 1361 -42 251 -53 300 -71 303 -10 2 -59 -43 -132 -122z"/>
<path d="M12460 5133 c-275 -44 -353 -59 -451 -83 -514 -129 -806 -379 -910
-776 -11 -43 -23 -109 -26 -145 -7 -79 -13 -76 134 -88 422 -37 764 163 1064
622 87 132 253 452 244 467 -6 10 -11 10 -55 3z"/>
<path d="M144 5119 c-3 -6 24 -70 61 -143 224 -444 456 -715 730 -853 158 -80
352 -114 532 -94 59 7 111 15 116 18 15 9 0 131 -28 229 -50 176 -151 344
-272 454 -203 183 -482 294 -918 365 -88 14 -172 27 -187 30 -15 2 -30 0 -34
-6z"/>
<path d="M10136 4648 c-224 -706 -174 -1141 165 -1464 76 -71 190 -154 213
-154 38 0 158 225 198 371 33 119 32 364 0 486 -69 256 -185 476 -410 776 -52
70 -101 127 -108 127 -8 0 -31 -55 -58 -142z"/>
<path d="M2379 4683 c-219 -281 -360 -545 -431 -806 -19 -70 -22 -107 -22
-247 0 -139 4 -178 22 -245 39 -140 161 -365 198 -365 48 0 260 185 340 297
60 83 119 212 146 319 19 77 23 115 23 279 0 158 -4 209 -23 305 -43 214 -145
560 -166 560 -6 0 -46 -44 -87 -97z"/>
<path d="M9572 3888 c-134 -254 -217 -464 -259 -658 -13 -63 -18 -126 -17
-240 1 -139 3 -164 28 -244 51 -169 125 -293 252 -425 l81 -84 46 42 c60 55
146 168 191 252 154 282 152 639 -6 1048 -55 146 -209 461 -223 461 -7 0 -49
-69 -93 -152z"/>
<path d="M2897 3853 c-102 -211 -138 -299 -182 -453 -94 -326 -84 -594 29
-835 46 -97 136 -223 209 -294 l45 -44 29 22 c49 38 153 163 203 245 211 341
181 739 -95 1286 -103 205 -129 250 -141 250 -6 0 -49 -80 -97 -177z"/>
<path d="M12050 4023 c-655 -29 -1034 -223 -1225 -624 -46 -98 -90 -241 -81
-264 2 -7 47 -23 98 -36 135 -33 357 -34 478 -1 244 67 472 229 692 492 94
111 301 417 293 431 -6 8 -98 9 -255 2z"/>
<path d="M350 4007 c0 -17 157 -250 245 -363 101 -130 274 -303 373 -374 109
-78 236 -142 349 -177 81 -25 101 -27 258 -27 144 0 182 4 250 22 43 12 83 26
88 31 12 12 -26 146 -68 244 -75 174 -212 334 -367 431 -213 132 -470 195
-883 216 -244 12 -245 12 -245 -3z"/>
<path d="M8888 3168 c-182 -181 -267 -280 -353 -413 -184 -282 -236 -555 -160
-835 32 -117 107 -280 130 -280 29 0 151 68 233 130 355 267 472 714 371 1412
-20 144 -24 158 -38 158 -5 0 -87 -78 -183 -172z"/>
<path d="M3575 3320 c-3 -5 -14 -69 -25 -142 -92 -636 -6 -1052 274 -1334 109
-109 314 -236 343 -212 19 16 78 146 106 234 69 219 59 437 -33 664 -72 181
-229 391 -470 628 -161 159 -185 179 -195 162z"/>
<path d="M10810 2969 c-316 -37 -573 -187 -737 -430 -55 -81 -113 -190 -113
-212 0 -28 222 -116 348 -138 108 -19 320 -6 427 25 175 53 349 149 540 300
125 99 402 373 389 385 -11 11 -290 56 -433 71 -120 12 -313 11 -421 -1z"/>
<path d="M1480 2963 c-189 -19 -471 -62 -485 -75 -11 -10 260 -281 375 -374
217 -176 451 -296 653 -335 81 -16 266 -16 342 0 131 27 335 108 335 133 -1
24 -97 196 -146 260 -171 224 -412 352 -727 387 -90 10 -267 12 -347 4z"/>
<path d="M8070 2419 c-431 -102 -662 -202 -855 -370 -186 -161 -295 -377 -326
-644 -10 -83 -10 -108 0 -118 8 -8 54 -12 159 -11 124 1 163 6 246 27 379 100
668 415 906 990 55 132 64 169 42 166 -4 0 -81 -18 -172 -40z"/>
<path d="M4400 2429 c0 -6 23 -65 51 -132 272 -647 588 -963 1028 -1027 93
-14 276 -9 293 8 8 8 8 38 -1 113 -66 547 -422 850 -1196 1019 -148 33 -175
36 -175 19z"/>
<path d="M9660 2126 c-257 -50 -468 -185 -627 -400 -51 -69 -52 -67 55 -139
174 -116 323 -167 513 -174 266 -11 535 72 854 266 123 74 309 203 320 221 9
14 -57 41 -280 115 -263 88 -407 116 -610 121 -103 2 -183 -1 -225 -10z"/>
<path d="M2670 2124 c-14 -2 -59 -9 -100 -15 -117 -16 -324 -73 -507 -139 -92
-33 -171 -64 -176 -69 -21 -21 278 -220 490 -328 236 -119 434 -173 640 -173
130 0 233 18 343 61 122 47 291 156 298 192 5 23 -78 125 -171 214 -141 133
-317 220 -507 248 -86 14 -247 18 -310 9z"/>
<path d="M8430 1525 c-126 -20 -268 -75 -375 -143 -74 -49 -145 -104 -145
-115 0 -17 73 -109 140 -175 335 -336 817 -377 1523 -130 66 23 116 46 114 52
-5 17 -125 106 -284 212 -368 246 -693 345 -973 299z"/>
<path d="M3995 1520 c-265 -29 -524 -147 -871 -396 -149 -107 -165 -121 -144
-134 8 -5 89 -33 180 -63 162 -54 321 -94 470 -119 98 -16 388 -16 465 0 174
37 314 102 436 200 79 64 219 222 219 247 0 21 -142 115 -255 170 -167 81
-334 113 -500 95z"/>
<path d="M6240 1287 c-49 -16 -133 -102 -148 -153 -49 -168 66 -327 237 -327
187 0 305 198 215 362 -59 110 -180 157 -304 118z"/>
<path d="M7160 1106 c-36 -8 -94 -24 -130 -36 -77 -26 -242 -109 -285 -144
l-30 -24 60 -88 c270 -398 689 -526 1335 -408 148 27 348 78 362 92 11 11
-246 232 -392 337 -140 100 -374 217 -505 251 -123 32 -313 41 -415 20z"/>
<path d="M5175 1094 c-266 -47 -527 -193 -868 -488 -113 -96 -127 -112 -112
-122 20 -15 271 -77 395 -98 376 -64 684 -39 915 77 151 75 289 199 385 346
l54 84 -28 22 c-16 13 -67 43 -115 68 -216 113 -415 148 -626 111z"/>
</g>
</svg>
